<?xml version="1.0" encoding="UTF-8" standalone="no"?>
<svg
   version="1.1"
   id="Layer_1"
   x="0px"
   y="0px"
   viewBox="0 0 72.434 72.44"
   style="enable-background:new 0 0 72.434 72.44;"
   xml:space="preserve"
   sodipodi:docname="close-disabled.svg"
   inkscape:version="1.2.1 (9c6d41e410, 2022-07-14)"
   xmlns:inkscape="http://www.inkscape.org/namespaces/inkscape"
   xmlns:sodipodi="http://sodipodi.sourceforge.net/DTD/sodipodi-0.dtd"
   xmlns="http://www.w3.org/2000/svg"
   xmlns:svg="http://www.w3.org/2000/svg"><defs
   id="defs356" /><sodipodi:namedview
   id="namedview354"
   pagecolor="#ffffff"
   bordercolor="#000000"
   borderopacity="0.25"
   inkscape:showpageshadow="2"
   inkscape:pageopacity="0.0"
   inkscape:pagecheckerboard="0"
   inkscape:deskcolor="#d1d1d1"
   showgrid="false"
   inkscape:zoom="11.236885"
   inkscape:cx="18.287986"
   inkscape:cy="46.854622"
   inkscape:window-width="1920"
   inkscape:window-height="1001"
   inkscape:window-x="-9"
   inkscape:window-y="-9"
   inkscape:window-maximized="1"
   inkscape:current-layer="Layer_1" />
<path
   style="fill: rgb(199, 45, 40);"
   d="M36.22,0C16.212,0,0,16.216,0,36.227c0,19.999,16.212,36.214,36.22,36.214  c20.011,0,36.214-16.215,36.214-36.214C72.434,16.215,56.231,0,36.22,0z M52.058,46.82c1.379,1.424,0.953,4.078-0.959,5.932  c-1.911,1.854-4.577,2.209-5.959,0.785l-9.027-9.295l-9.298,9.027c-1.421,1.379-4.075,0.947-5.929-0.961s-2.206-4.574-0.785-5.956  l9.298-9.027l-9.027-9.298c-1.379-1.421-0.946-4.078,0.962-5.932c1.905-1.851,4.577-2.204,5.953-0.785l9.027,9.297l9.301-9.023  c1.424-1.382,4.078-0.95,5.929,0.958c1.857,1.908,2.206,4.577,0.785,5.959l-9.295,9.024L52.058,46.82z"
   id="id_101" />
<path
   style="fill:#333333;stroke-width:0.0889926"
   d="M 33.995185,72.341959 C 28.651876,71.881218 24.673501,70.821854 20.334816,68.704468 15.533302,66.361209 11.290857,62.955979 7.9475957,58.761772 1.3816582,50.524632 -1.2415415,39.984781 0.67307817,29.533219 1.3871533,25.635212 2.9519313,21.443795 4.9913203,17.966369 10.308686,8.8995613 19.44248,2.498422 29.723539,0.63355279 32.097387,0.20296321 33.406001,0.0945202 36.220001,0.09519998 c 2.823408,6.8169e-4 4.187805,0.11329535 6.496462,0.53619897 13.884923,2.54346235 25.130651,13.06109005 28.55371,26.70500805 0.839767,3.347218 1.031149,4.996011 1.031149,8.883594 0,3.26198 -0.05884,4.030576 -0.493949,6.451966 -1.634113,9.093928 -6.809443,17.324234 -14.345744,22.813978 -5.039376,3.670883 -10.881482,5.938867 -17.236959,6.691619 -1.133879,0.134299 -5.30267,0.244312 -6.229485,0.164395 z M 48.528278,54.286247 c 1.567231,-0.408211 3.120297,-1.702595 3.844891,-3.204476 0.373665,-0.774507 0.4961,-1.309951 0.497087,-2.173932 8.01e-4,-0.722234 -0.141312,-1.24297 -0.471098,-1.725926 -0.112738,-0.165101 -2.237349,-2.39361 -4.721355,-4.952242 -2.484007,-2.558633 -4.515899,-4.677195 -4.515315,-4.707916 6.23e-4,-0.03072 2.14168,-2.131427 4.757989,-4.668234 5.363876,-5.200881 5.210635,-5.017213 5.279417,-6.327683 0.04701,-0.895665 -0.08032,-1.536158 -0.463303,-2.330495 -0.622617,-1.291359 -1.622565,-2.314749 -2.854149,-2.921061 -0.769405,-0.378779 -1.302915,-0.502137 -2.176003,-0.503135 -0.722052,-8.01e-4 -1.242405,0.14116 -1.726492,0.471098 -0.165412,0.112738 -2.396654,2.237349 -4.958315,4.721355 -2.561661,2.484007 -4.680897,4.516376 -4.709413,4.516376 -0.02852,0 -2.129137,-2.142391 -4.668048,-4.76087 -5.200821,-5.36381 -5.01562,-5.209149 -6.319733,-5.277597 -0.959043,-0.05034 -1.585411,0.09126 -2.558435,0.578356 -1.372335,0.686994 -2.562751,2.064919 -3.021646,3.497605 -0.262231,0.818691 -0.256599,1.912759 0.01348,2.619844 0.218145,0.57111 -0.263301,0.05195 7.019958,7.569812 1.375138,1.419433 2.499892,2.60081 2.499452,2.625283 -4.45e-4,0.02447 -2.141416,2.120066 -4.757725,4.656873 -5.446014,5.280523 -5.223459,5.007886 -5.282223,6.470914 -0.03078,0.766372 -0.0072,0.93393 0.227701,1.615312 0.800343,2.321953 2.976322,4.003829 5.185956,4.008375 1.242424,0.0026 1.577397,-0.172203 3.020634,-1.575895 5.956851,-5.793631 8.408452,-8.146904 8.465195,-8.125676 0.03677,0.01376 2.128151,2.147486 4.647511,4.741621 2.51936,2.594135 4.712221,4.792876 4.873026,4.88609 0.714307,0.414067 1.902744,0.52841 2.870953,0.276224 z"
   id="path358" /><path
   style="fill:#808080;fill-opacity:1;stroke:#808080;stroke-opacity:1;stroke-width:0.7;stroke-dasharray:none"
   d="M 32.571304,72.162004 C 26.319892,71.428696 21.021918,69.504686 16.046916,66.161014 9.3059963,61.630481 4.1646978,54.7365 1.7484087,46.988111 1.0798846,44.844334 0.63843518,42.777301 0.33535732,40.37167 0.14096691,38.828727 0.11593579,33.891747 0.29490606,32.393319 0.85302057,27.720507 2.1033788,23.587762 4.1720539,19.57838 6.8764487,14.336883 11.027549,9.6867308 16.018756,6.3074468 21.182992,2.8110141 27.375419,0.63722056 33.372238,0.21566927 c 1.672819,-0.1175922 5.617565,-0.0652987 6.941425,0.092019 4.743824,0.56372033 9.643884,2.17199653 13.714799,4.50141053 7.381614,4.2238262 13.097865,10.9373572 16.041571,18.8402482 1.024616,2.750762 1.819419,6.095572 2.056618,8.654979 0.144522,1.559416 0.115991,7.046904 -0.04312,8.294005 -1.388083,10.879474 -7.481923,20.418938 -16.789743,26.283128 -1.565579,0.986358 -4.396636,2.397932 -6.125354,3.054119 -3.368449,1.278597 -7.028956,2.095598 -10.234153,2.284195 -1.980563,0.116537 -5.120003,0.08804 -6.362974,-0.05777 z M 49.140443,54.129942 c 1.567871,-0.648746 2.862195,-1.958574 3.478472,-3.520142 0.205598,-0.520959 0.235374,-0.724705 0.236658,-1.619355 0.0017,-1.174511 -0.07267,-1.409965 -0.660975,-2.092967 -0.21002,-0.243827 -2.268331,-2.399847 -4.574023,-4.791155 -2.305694,-2.391308 -4.226639,-4.408022 -4.268769,-4.481588 -0.09468,-0.165321 -0.105466,-0.154248 4.692454,-4.815419 3.74891,-3.642059 4.725573,-4.665657 4.996517,-5.236627 0.08089,-0.170456 0.169395,-0.605146 0.196684,-0.965977 0.240403,-3.178682 -3.035498,-6.311914 -6.089266,-5.824072 -0.699165,0.111692 -1.00911,0.260103 -1.53947,0.737143 -0.220257,0.198113 -2.338708,2.225121 -4.707669,4.504463 -2.368962,2.279342 -4.377533,4.193943 -4.463492,4.254668 -0.138502,0.09785 -0.519483,-0.261684 -3.347726,-3.159238 -1.755292,-1.798307 -3.531133,-3.625286 -3.946314,-4.059953 -1.070869,-1.121128 -2.384457,-2.278943 -2.801704,-2.469464 -0.467422,-0.21343 -1.854252,-0.226676 -2.542386,-0.02428 -1.334571,0.392524 -2.679389,1.407327 -3.450326,2.603628 -0.549714,0.85302 -0.741525,1.438802 -0.792919,2.42155 -0.05694,1.088807 0.103018,1.686082 0.611142,2.281964 0.200047,0.234597 2.2513,2.383455 4.558341,4.77524 2.30704,2.391785 4.250227,4.428092 4.318194,4.525128 0.151218,0.215895 0.291245,0.06959 -4.69432,4.904911 -3.655369,3.545216 -4.678061,4.617981 -4.95124,5.193664 -0.204226,0.430373 -0.275342,1.64872 -0.132061,2.262454 0.266246,1.140457 1.0425,2.408627 1.980413,3.235414 0.99371,0.875974 2.638079,1.455658 3.804769,1.341285 1.200063,-0.117645 0.947534,0.09144 7.17226,-5.938489 1.904298,-1.844706 3.568587,-3.4364 3.698422,-3.537099 l 0.236062,-0.183088 4.415001,4.516018 c 2.428251,2.483809 4.582418,4.654954 4.787039,4.824763 0.604924,0.502015 1.110484,0.636235 2.250848,0.597577 0.797268,-0.02703 1.081066,-0.07545 1.529384,-0.260954 z"
   id="path922" /><path
   style="fill:#808080;stroke:#000000;stroke-width:0.0889926;stroke-opacity:1"
   d=""
   id="path924" /><path
   style="fill:#808080;stroke:#000000;stroke-width:0.0889926;stroke-opacity:1"
   d=""
   id="path926" /><path
   style="fill:#808080;stroke:#000000;stroke-width:0.0889926;stroke-opacity:1"
   d=""
   id="path928" /></svg>
