<?xml version="1.0" encoding="UTF-8" standalone="no"?>
<!-- Generator: Adobe Illustrator 19.0.0, SVG Export Plug-In . SVG Version: 6.00 Build 0)  -->

<svg
   version="1.1"
   id="Layer_1"
   x="0px"
   y="0px"
   viewBox="0 0 426.667 426.667"
   style="enable-background:new 0 0 426.667 426.667;"
   xml:space="preserve"
   sodipodi:docname="tick-disabled.svg"
   inkscape:version="1.2.1 (9c6d41e410, 2022-07-14)"
   xmlns:inkscape="http://www.inkscape.org/namespaces/inkscape"
   xmlns:sodipodi="http://sodipodi.sourceforge.net/DTD/sodipodi-0.dtd"
   xmlns="http://www.w3.org/2000/svg"
   xmlns:svg="http://www.w3.org/2000/svg"><defs
   id="defs80" /><sodipodi:namedview
   id="namedview78"
   pagecolor="#ffffff"
   bordercolor="#000000"
   borderopacity="0.25"
   inkscape:showpageshadow="2"
   inkscape:pageopacity="0.0"
   inkscape:pagecheckerboard="0"
   inkscape:deskcolor="#d1d1d1"
   showgrid="false"
   inkscape:zoom="1.907811"
   inkscape:cx="107.71507"
   inkscape:cy="213.59558"
   inkscape:window-width="1920"
   inkscape:window-height="1001"
   inkscape:window-x="-9"
   inkscape:window-y="-9"
   inkscape:window-maximized="1"
   inkscape:current-layer="Layer_1" />
<path
   style="fill:#6AC259;"
   d="M213.333,0C95.518,0,0,95.514,0,213.333s95.518,213.333,213.333,213.333  c117.828,0,213.333-95.514,213.333-213.333S331.157,0,213.333,0z M174.199,322.918l-93.935-93.931l31.309-31.309l62.626,62.622  l140.894-140.898l31.309,31.309L174.199,322.918z"
   id="path45" />
<g
   id="g47">
</g>
<g
   id="g49">
</g>
<g
   id="g51">
</g>
<g
   id="g53">
</g>
<g
   id="g55">
</g>
<g
   id="g57">
</g>
<g
   id="g59">
</g>
<g
   id="g61">
</g>
<g
   id="g63">
</g>
<g
   id="g65">
</g>
<g
   id="g67">
</g>
<g
   id="g69">
</g>
<g
   id="g71">
</g>
<g
   id="g73">
</g>
<g
   id="g75">
</g>
<path
   style="fill:#808080;stroke-width:0.624;stroke-dasharray:none;stroke:#808080;stroke-opacity:1"
   d="m 200.22947,426.08952 c -31.51182,-2.71719 -54.65684,-8.88406 -80.4587,-21.43778 C 86.563562,388.49498 57.932037,363.62071 37.073418,332.80656 30.757713,323.47646 27.651723,318.16092 22.580894,308.00428 6.3284721,275.45142 -0.79393008,241.69789 0.61334308,203.8986 2.8777364,143.0771 32.355678,85.266295 80.845643,46.550631 111.91965,21.74032 149.01447,6.4324185 190.00833,1.5025166 c 10.94756,-1.3165476 35.54509,-1.32126703 46.65033,-0.00895 57.3562,6.7778365 107.75146,34.6346054 143.32875,79.2272164 28.04718,35.154347 44.42908,78.956847 46.06785,123.177817 0.83057,22.41206 -1.25177,42.72558 -6.42839,62.70988 -12.37107,47.75842 -41.09536,89.89917 -81.18154,119.09956 -29.77791,21.69142 -63.47737,34.7667 -101.52459,39.39123 -6.69541,0.81381 -31.09926,1.47244 -36.69127,0.99025 z m 60.27827,-189.16854 86.22303,-86.22423 -15.8552,-15.8552 -15.85521,-15.85521 -70.36906,70.36761 -70.36907,70.36761 -31.31661,-31.31661 -31.31661,-31.31662 -15.726198,15.71964 c -8.649405,8.6458 -15.726191,15.95649 -15.726191,16.24599 0,0.51712 93.308649,94.09125 93.824299,94.09125 0.14508,0 39.06415,-38.8009 86.48682,-86.22423 z"
   id="path324" /></svg>
